<svg width="253" height="235" viewBox="0 0 253 235" fill="none" xmlns="http://www.w3.org/2000/svg">
<rect width="253" height="235" fill="#1E1E1E"/>
<path d="M0 0H253V235H0V0Z" fill="#178EB4"/>
<g clip-path="url(#clip0_0_1)">
<path d="M130.721 39.7187C128.143 37.5042 124.646 36.2602 121 36.2602C117.354 36.2602 113.857 37.5042 111.279 39.7187L19.8825 118.225C19.2433 118.774 18.7363 119.426 18.3903 120.143C18.0444 120.861 17.8663 121.63 17.8663 122.406C17.8663 123.183 18.0444 123.952 18.3903 124.669C18.7363 125.387 19.2433 126.039 19.8825 126.588C21.1735 127.697 22.9244 128.32 24.75 128.32C25.654 128.32 26.5491 128.167 27.3843 127.87C28.2195 127.573 28.9783 127.137 29.6175 126.588L121 48.0702L212.383 126.588C213.673 127.697 215.424 128.32 217.25 128.32C219.076 128.32 220.827 127.697 222.118 126.588C223.408 125.479 224.134 123.975 224.134 122.406C224.134 120.838 223.408 119.334 222.118 118.225L189.75 90.4298V51.5312C189.75 49.9648 189.026 48.4625 187.736 47.3549C186.447 46.2473 184.698 45.625 182.875 45.625H169.125C167.302 45.625 165.553 46.2473 164.264 47.3549C162.974 48.4625 162.25 49.9648 162.25 51.5312V66.8048L130.721 39.7187Z" fill="#F9F1F1"/>
<path d="M121 60.8986L203.5 131.774V181.469C203.5 186.168 201.327 190.675 197.459 193.998C193.591 197.321 188.345 199.187 182.875 199.187H59.125C53.6549 199.187 48.4089 197.321 44.541 193.998C40.673 190.675 38.5 186.168 38.5 181.469V131.774L121 60.8986Z" fill="#F9F1F1"/>
<path d="M98.4149 86.6161C106.533 82.8251 114.556 81.2863 122.482 81.9996C130.447 82.6067 137.622 85.3041 144.008 90.0921C150.466 94.8461 155.573 101.246 159.33 109.292C163.189 117.556 164.151 126.422 162.215 135.89C160.318 145.252 156.492 153.793 150.738 161.512C144.95 169.159 138.576 174.608 131.618 177.857C128.283 179.414 124.901 180.773 121.47 181.934C115.864 184.11 111.611 185.875 108.712 187.229L91.5325 195.251L88.6892 189.162L95.1526 176.344L66.8723 115.781L53.077 117.72L53.3649 108.977L68.6957 101.818C75.3645 98.7042 81.7867 95.4403 87.9625 92.0268C92.7561 89.4351 96.2403 87.6316 98.4149 86.6161ZM130.049 166.273C134.616 164.14 138.138 160.906 140.616 156.57C143.167 152.201 144.411 147.206 144.346 141.585C144.355 135.93 143.005 130.204 140.297 124.405C137.047 117.446 133.069 111.667 128.36 107.067C123.69 102.361 118.439 99.3389 112.605 98.0016C106.81 96.5579 100.795 97.2916 94.5615 100.203C91.2996 101.726 88.6976 104 86.7554 107.026L116.254 170.198C120.594 169.849 125.156 168.558 129.94 166.324L130.049 166.273Z" fill="#178EB4"/>
</g>
<defs>
<clipPath id="clip0_0_1">
<rect width="220" height="189" fill="white" transform="translate(11 22)"/>
</clipPath>
</defs>
</svg>
